<svg width="200" height="93" viewBox="0 0 200 93" fill="none" xmlns="http://www.w3.org/2000/svg">
<path d="M80.5149 50.8911H82.3317V70.0999H80.2121V55.2543L73.8782 65.5721H72.566L66.2322 55.2543V70.0999H64.1125V50.8911H65.9294L73.2221 62.7457L80.5149 50.8911Z" fill="#383838"/>
<path d="M87.6373 70.0999H85.3409L93.0374 50.8911H95.3842L103.055 70.0999H100.784L98.9675 65.4624H89.4542L87.6373 70.0999ZM93.9206 53.992L90.2869 63.322H98.1348L94.4758 53.992C94.4421 53.9005 94.3496 53.6535 94.1982 53.2511C94.0468 53.6718 93.9543 53.9188 93.9206 53.992Z" fill="#383838"/>
<path d="M108.198 70.0999H106.078V50.8911H112.993C114.153 50.8911 115.205 51.0649 116.147 51.4125C117.089 51.7418 117.897 52.3638 118.57 53.2785C119.259 54.1749 119.604 55.3183 119.604 56.7086C119.604 58.3551 119.167 59.6357 118.292 60.5504C117.417 61.4651 116.282 62.0597 114.885 62.3341L120.866 70.0999H118.216L112.438 62.5262H108.198V70.0999ZM108.198 53.0864V60.3309H113.094C114.339 60.3309 115.373 60.0565 116.197 59.5076C117.039 58.9405 117.459 58.0075 117.459 56.7086C117.459 55.3915 117.039 54.4585 116.197 53.9096C115.373 53.3608 114.339 53.0864 113.094 53.0864H108.198Z" fill="#383838"/>
<path d="M126.249 70.0999H124.129V50.8911H126.249V59.2058H130.261L135.585 50.8911H138.008L132.002 60.2486L138.538 70.0999H136.115L130.337 61.4011H126.249V70.0999Z" fill="#383838"/>
<path d="M141.416 50.8911H153.326V53.0864H143.535V59.3156H152.569V61.5108H143.535V67.9046H153.478V70.0999H141.416V50.8911Z" fill="#383838"/>
<path d="M155.6 50.8911H170.135V53.0864H163.928V70.0999H161.808V53.0864H155.6V50.8911Z" fill="#383838"/>
<path d="M16.1126 24.3833L0 53.5124H4.3149L16.1126 33.6021H17.915L6.0627 53.5124H8.62979L18.5158 35.6749L40.0903 72.168L16.1126 24.3833Z" fill="url(#paint0_linear)"/>
<path d="M17.5327 23.3469L44.6783 78.3321L55.0013 24.3833H40.8003L36.2123 35.0203H35.3384V13.3099H28.5657V23.3469H17.5327Z" fill="url(#paint1_linear)"/>
<path d="M57.8961 23.3469L46.9723 76.8047L80.8906 6.27311H68.8198L65.7612 12.4917V0H60.9001V6.27311H53.8543L44.9514 23.3469H57.8961Z" fill="url(#paint2_linear)"/>
<path d="M55.0013 64.6949L81.7099 7.14589L104.73 47.2736H170.135V48.6575H105.524H101.1L81.7099 13.8554L80.8906 15.11L100.062 48.6575H98.5872L80.8906 16.5283L55.0013 64.6949Z" fill="url(#paint3_linear)"/>
<path d="M80.1806 25.8561H78.0504V28.7472H80.1806V25.8561Z" fill="url(#paint4_linear)"/>
<path d="M83.4031 25.9107H81.3822V28.7472H83.4031V25.9107Z" fill="url(#paint5_linear)"/>
<path d="M83.4031 33.6021V30.6564H81.3822V33.6021H83.4031Z" fill="url(#paint6_linear)"/>
<path d="M80.1806 33.6021V30.6564H78.0504V33.6021H80.1806Z" fill="url(#paint7_linear)"/>
<path d="M16.058 47.8938V44.3482H18.7889V47.8938H16.058Z" fill="url(#paint8_linear)"/>
<path d="M22.2299 44.3482H19.7174V47.8938H22.2299V44.3482Z" fill="url(#paint9_linear)"/>
<path d="M19.7174 52.7487V49.4212H22.3391V52.7487H19.7174Z" fill="url(#paint10_linear)"/>
<path d="M18.7889 52.7487V49.4212H16.058V52.7487H18.7889Z" fill="url(#paint11_linear)"/>
<path d="M89.0591 10.1033L87.8117 7.14589C106.804 2.81638 131.343 3.86671 137.829 4.73984C140.178 5.05601 214.54 12.4917 197.452 49.893C183.781 79.8141 130.47 90.4666 105.524 92.0526C32.3057 97.9151 2.99358 72.168 0.374198 56.7533H5.7377C7.93299 65.5345 12.4733 69.3929 14.469 70.2244C12.6728 69.3264 8.98075 59.7469 10.2281 56.7533H12.3485L12.0991 57.377C10.2281 62.0053 21.2045 83.5708 48.7704 86.9386C76.3363 90.3064 87.5623 90.6806 126.105 82.9472C164.647 75.2137 179.989 50.5167 180.363 49.893L180.369 49.8843C180.829 49.1176 191.722 30.994 163.899 15.5916C141.547 3.2181 104.692 6.77714 89.0591 10.1033Z" fill="url(#paint12_linear)"/>
<path d="M108.551 44.6542H106.749V29.6364H112.628C113.614 29.6364 114.508 29.7722 115.309 30.044C116.11 30.3014 116.797 30.7877 117.369 31.5029C117.955 32.2037 118.248 33.0976 118.248 34.1846C118.248 35.4718 117.877 36.473 117.133 37.1882C116.389 37.9033 115.424 38.3681 114.237 38.5827L119.321 44.6542H117.069L112.156 38.7329H108.551V44.6542ZM108.551 31.3527V37.0165H112.713C113.772 37.0165 114.651 36.802 115.352 36.3729C116.067 35.9295 116.425 35.2001 116.425 34.1846C116.425 33.1548 116.067 32.4254 115.352 31.9963C114.651 31.5672 113.772 31.3527 112.713 31.3527H108.551Z" fill="#383838"/>
<path d="M121.756 39.9986C121.427 39.0833 121.262 38.1321 121.262 37.1453C121.262 36.1584 121.427 35.2072 121.756 34.2919C122.099 33.3765 122.585 32.5541 123.215 31.8247C123.844 31.0809 124.666 30.4874 125.682 30.044C126.697 29.6006 127.842 29.3789 129.114 29.3789C130.387 29.3789 131.532 29.6006 132.547 30.044C133.563 30.4874 134.385 31.0809 135.014 31.8247C135.644 32.5541 136.123 33.3765 136.452 34.2919C136.795 35.2072 136.967 36.1584 136.967 37.1453C136.967 38.1321 136.795 39.0833 136.452 39.9986C136.123 40.914 135.644 41.7436 135.014 42.4873C134.385 43.2167 133.563 43.8031 132.547 44.2465C131.532 44.6899 130.387 44.9116 129.114 44.9116C127.842 44.9116 126.697 44.6899 125.682 44.2465C124.666 43.8031 123.844 43.2167 123.215 42.4873C122.585 41.7436 122.099 40.914 121.756 39.9986ZM134.757 39.3979C135.014 38.6828 135.143 37.9319 135.143 37.1453C135.143 36.3586 135.014 35.6077 134.757 34.8926C134.514 34.1775 134.149 33.5338 133.663 32.9617C133.191 32.3896 132.561 31.9391 131.775 31.6101C130.988 31.2669 130.101 31.0952 129.114 31.0952C128.128 31.0952 127.241 31.2669 126.454 31.6101C125.667 31.9391 125.031 32.3896 124.545 32.9617C124.073 33.5338 123.708 34.1775 123.451 34.8926C123.207 35.6077 123.086 36.3586 123.086 37.1453C123.086 37.9319 123.207 38.6828 123.451 39.3979C123.708 40.1131 124.073 40.7567 124.545 41.3288C125.031 41.9009 125.667 42.3586 126.454 42.7018C127.241 43.0308 128.128 43.1953 129.114 43.1953C130.101 43.1953 130.988 43.0308 131.775 42.7018C132.561 42.3586 133.191 41.9009 133.663 41.3288C134.149 40.7567 134.514 40.1131 134.757 39.3979Z" fill="#383838"/>
<path d="M140.147 39.9986C139.819 39.0833 139.654 38.1321 139.654 37.1453C139.654 36.1584 139.819 35.2072 140.147 34.2919C140.491 33.3765 140.977 32.5541 141.606 31.8247C142.236 31.0809 143.058 30.4874 144.074 30.044C145.089 29.6006 146.233 29.3789 147.506 29.3789C148.779 29.3789 149.923 29.6006 150.939 30.044C151.954 30.4874 152.777 31.0809 153.406 31.8247C154.035 32.5541 154.515 33.3765 154.843 34.2919C155.187 35.2072 155.358 36.1584 155.358 37.1453C155.358 38.1321 155.187 39.0833 154.843 39.9986C154.515 40.914 154.035 41.7436 153.406 42.4873C152.777 43.2167 151.954 43.8031 150.939 44.2465C149.923 44.6899 148.779 44.9116 147.506 44.9116C146.233 44.9116 145.089 44.6899 144.074 44.2465C143.058 43.8031 142.236 43.2167 141.606 42.4873C140.977 41.7436 140.491 40.914 140.147 39.9986ZM153.149 39.3979C153.406 38.6828 153.535 37.9319 153.535 37.1453C153.535 36.3586 153.406 35.6077 153.149 34.8926C152.905 34.1775 152.541 33.5338 152.054 32.9617C151.582 32.3896 150.953 31.9391 150.167 31.6101C149.38 31.2669 148.493 31.0952 147.506 31.0952C146.519 31.0952 145.633 31.2669 144.846 31.6101C144.059 31.9391 143.423 32.3896 142.937 32.9617C142.465 33.5338 142.1 34.1775 141.842 34.8926C141.599 35.6077 141.478 36.3586 141.478 37.1453C141.478 37.9319 141.599 38.6828 141.842 39.3979C142.1 40.1131 142.465 40.7567 142.937 41.3288C143.423 41.9009 144.059 42.3586 144.846 42.7018C145.633 43.0308 146.519 43.1953 147.506 43.1953C148.493 43.1953 149.38 43.0308 150.167 42.7018C150.953 42.3586 151.582 41.9009 152.054 41.3288C152.541 40.7567 152.905 40.1131 153.149 39.3979Z" fill="#383838"/>
<path d="M159.054 29.6364H169.223V31.3527H160.856V36.5231H168.601V38.2394H160.856V44.6542H159.054V29.6364Z" fill="#383838"/>
<path d="M179.365 62.7406C199.622 45.4776 190.051 30.7675 182.733 25.5703C197.801 51.6145 163.899 72.4698 145.937 79.0806C148.058 78.5817 160.78 76.7107 179.365 62.7406Z" fill="white"/>
<defs>
<linearGradient id="paint0_linear" x1="52.7619" y1="0" x2="52.7619" y2="78.3321" gradientUnits="userSpaceOnUse">
<stop stop-color="#F7D745"/>
<stop offset="1" stop-color="#FFAD00"/>
</linearGradient>
<linearGradient id="paint1_linear" x1="52.7619" y1="0" x2="52.7619" y2="78.3321" gradientUnits="userSpaceOnUse">
<stop stop-color="#F7D745"/>
<stop offset="1" stop-color="#FFAD00"/>
</linearGradient>
<linearGradient id="paint2_linear" x1="52.7619" y1="0" x2="52.7619" y2="78.3321" gradientUnits="userSpaceOnUse">
<stop stop-color="#F7D745"/>
<stop offset="1" stop-color="#FFAD00"/>
</linearGradient>
<linearGradient id="paint3_linear" x1="52.7619" y1="0" x2="52.7619" y2="78.3321" gradientUnits="userSpaceOnUse">
<stop stop-color="#F7D745"/>
<stop offset="1" stop-color="#FFAD00"/>
</linearGradient>
<linearGradient id="paint4_linear" x1="52.7619" y1="0" x2="52.7619" y2="78.3321" gradientUnits="userSpaceOnUse">
<stop stop-color="#F7D745"/>
<stop offset="1" stop-color="#FFAD00"/>
</linearGradient>
<linearGradient id="paint5_linear" x1="52.7619" y1="0" x2="52.7619" y2="78.3321" gradientUnits="userSpaceOnUse">
<stop stop-color="#F7D745"/>
<stop offset="1" stop-color="#FFAD00"/>
</linearGradient>
<linearGradient id="paint6_linear" x1="52.7619" y1="0" x2="52.7619" y2="78.3321" gradientUnits="userSpaceOnUse">
<stop stop-color="#F7D745"/>
<stop offset="1" stop-color="#FFAD00"/>
</linearGradient>
<linearGradient id="paint7_linear" x1="52.7619" y1="0" x2="52.7619" y2="78.3321" gradientUnits="userSpaceOnUse">
<stop stop-color="#F7D745"/>
<stop offset="1" stop-color="#FFAD00"/>
</linearGradient>
<linearGradient id="paint8_linear" x1="52.7619" y1="0" x2="52.7619" y2="78.3321" gradientUnits="userSpaceOnUse">
<stop stop-color="#F7D745"/>
<stop offset="1" stop-color="#FFAD00"/>
</linearGradient>
<linearGradient id="paint9_linear" x1="52.7619" y1="0" x2="52.7619" y2="78.3321" gradientUnits="userSpaceOnUse">
<stop stop-color="#F7D745"/>
<stop offset="1" stop-color="#FFAD00"/>
</linearGradient>
<linearGradient id="paint10_linear" x1="52.7619" y1="0" x2="52.7619" y2="78.3321" gradientUnits="userSpaceOnUse">
<stop stop-color="#F7D745"/>
<stop offset="1" stop-color="#FFAD00"/>
</linearGradient>
<linearGradient id="paint11_linear" x1="52.7619" y1="0" x2="52.7619" y2="78.3321" gradientUnits="userSpaceOnUse">
<stop stop-color="#F7D745"/>
<stop offset="1" stop-color="#FFAD00"/>
</linearGradient>
<linearGradient id="paint12_linear" x1="52.7619" y1="0" x2="52.7619" y2="78.3321" gradientUnits="userSpaceOnUse">
<stop stop-color="#F7D745"/>
<stop offset="1" stop-color="#FFAD00"/>
</linearGradient>
</defs>
</svg>
